<svg xmlns="http://www.w3.org/2000/svg" viewBox="0 0 500 475.18"><defs><style>.a{fill:#231f20;}</style></defs><title>Berlioz2.2_black</title><path class="a" d="M250,0C111.93,0,0,111.93,0,250A250,250,0,0,0,141.28,475.18c14.54-25.75,36-64.21,42.81-78.36a88.54,88.54,0,0,0,8.23-40.48c-0.43-18.8-7.11-27.61-40.67-82.78-21.42-35.21-16.53-29.67-21.42-35.21-4.49-5.09-4.85-3.09-4.16,22.49,0.7,25.92-5,63.54-12.73,81.75-1.12,2.63-7.37,17.72-13.6,16.87s-6.23-21.73-18.49-36.82c-6.83-8.4-17.34-14.69-29.45-26.9A19.49,19.49,0,0,1,46,285.63a17.89,17.89,0,0,1,.6-8.6c24.29-61,42.24-87.92,54.58-101,7.93-8.39,18.39-16.17,25.52-32.79,4.77-11.13,5.35-19.91,13.74-26.59,6.35-5.05,11.75-4.58,22.06-6.56,30.18-5.81,34.51-19.62,71.09-28,9.26-2.12,12.24-.6,16.39-0.6s7.13-1.52,16.39.6c36.58,8.36,40.91,22.18,71.09,28,10.31,2,15.71,1.51,22.06,6.56,8.39,6.67,9,15.46,13.74,26.59,7.13,16.62,17.58,24.4,25.52,32.79,12.35,13.05,30.29,40,54.58,101a17.89,17.89,0,0,1,.6,8.6,19.49,19.49,0,0,1-5.77,10.13c-12.11,12.22-22.62,18.5-29.45,26.9-12.27,15.09-12.18,36-18.49,36.82s-12.48-14.24-13.6-16.87c-7.76-18.21-13.43-55.84-12.73-81.75,0.69-25.58.33-27.58-4.16-22.49-4.89,5.54,0,0-21.42,35.21-33.56,55.17-40.25,64-40.67,82.78a88.54,88.54,0,0,0,8.23,40.48c6.73,14.07,28.7,52.15,43.74,77.9A250,250,0,0,0,500,250C500,111.93,388.07,0,250,0Z"/></svg>